<?xml version="1.0" encoding="utf-8"?>
<!-- Generator: Adobe Illustrator 24.0.0, SVG Export Plug-In . SVG Version: 6.00 Build 0)  -->
<svg version="1.1" id="Calque_1" xmlns="http://www.w3.org/2000/svg" xmlns:xlink="http://www.w3.org/1999/xlink" x="0px" y="0px"
	 viewBox="0 0 247 236" style="enable-background:new 0 0 247 236;" xml:space="preserve">
<style type="text/css">
	.st0{fill:#FFFFFF;}
</style>
<g>
	<path class="st0" d="M238.4,8c0.2,1.4,0.2,1.4-1.1,2c-4.8,2.1-9.2,5-13.4,8c-2.4,1.7-4.9,3.5-7.2,5.3c-1.9,1.4-3.7,3-5.6,4.4
		c-0.7,0.5-1.5,0.6-2.3,0.9c-0.6,0.2-1.2,0.4-1.7,0.5c-0.3,0.1-0.3,0.3-0.3,0.6c0,0.6,0.4,0.9,0.9,1.1c0.7,0.3,1.4,0.6,1.7,1.4
		c0.1,0.2,0.2,0.5,0.1,0.7c-0.3,0.6-0.6,1.2-0.9,1.8c-0.1,0.2-0.4,0.4-0.7,0.6c-1.1,0.6-1.3,1.3-0.8,2.4c0.1,0.1,0.1,0.3,0.2,0.5
		c-0.1,0.1-0.2,0.1-0.3,0.1c-1,0.1-1.4,0.8-1.9,1.5c-0.4,0.7-1,1-1.7,1.2c-4,1.1-8,2.1-12,3.4c-4.2,1.4-8.4,2.8-12.6,4.4
		c-3.8,1.5-7.7,3.1-11.4,4.8c-4,1.8-8,3.7-11.9,5.8c-4,2.1-7.8,4.3-11.7,6.6c-5.4,3.1-10.7,6.6-15.8,10.1c-2,1.4-4,2.7-6,4.1
		c-2.8,2-5.5,4.1-8.2,6.2c-0.2,0.1-0.4,0.2-0.6,0.3c-0.7,0.5-1.5,0.9-2.2,1.4c-1.7,1.3-3.4,2.7-5,4.1c-1.4,1.2-2.8,2.3-4.2,3.5
		c-0.8,0.7-1.7,1.4-2.4,2.1c-0.4,0.4-0.7,1-1.1,1.4c-1.2,1.1-2.4,2.2-3.7,3.3c-0.5,0.4-0.9,0.8-1.4,1.2c-1.3,1.2-2.6,2.5-3.9,3.7
		c-3.8,3.7-7.6,7.4-11.3,11.1c-2,2-3.8,4-5.7,6.1c-1.5,1.7-3.1,3.4-4.5,5.1c-1.4,1.7-2.8,3.4-4.3,5c-0.3,0.3-0.3,0.9-0.9,1
		c-0.1,0-0.2,0-0.5,0c1.1-1.6,2.2-3.1,3.2-4.5c-0.2,0.1-0.5,0.3-0.7,0.4c-0.5,0.2-0.8,0-0.7-0.6c0.1-0.3,0.2-0.6,0.3-0.8
		c0.7-1.1,1.4-2.2,2.1-3.3c-0.4,0.3-0.7,0.5-1.2,0.2c-0.4-0.2-0.4-0.4-0.3-0.7c0.4-0.7,0.8-1.3,1.2-1.9c0.1-0.2,0.3-0.4,0.4-0.6
		c0.3-0.6,0.1-1-0.6-1.1c0,0,0,0-0.1,0c-1.1-0.4-2-0.2-3,0.4c-0.3,0.2-0.9,0.1-1.3,0.2c0-0.4-0.1-0.8,0-1.2c0.5-2,1.2-3.9,2.4-5.7
		c1.7-2.5,3.5-5.1,5.2-7.6c0.3-0.5,0.7-1,1-1.4c0.2-0.3,0.3-0.6,0.8-0.5c0.1,0,0.3-0.2,0.5-0.4c0.8-1,1.6-2,2.5-2.9
		c3.3-3.5,6.6-6.9,10-10.4c1.8-1.8,3.7-3.5,5.6-5.3c1.9-1.8,3.9-3.5,5.9-5.2c2.6-2.2,5.1-4.3,7.7-6.4c4-3.2,8-6.3,12-9.4
		c2.8-2.1,5.6-4.1,8.5-6c3.2-2.2,6.3-4.3,9.6-6.4c4.1-2.6,8.3-5.2,12.5-7.7c3.3-1.9,6.6-3.8,9.9-5.7c1.7-0.9,3.4-1.8,5.1-2.7
		c3.3-1.7,6.6-3.4,9.9-5.1c4.3-2.1,8.6-4.1,12.9-6c5.3-2.3,10.6-4.5,16-6.7c3.3-1.4,6.7-2.6,10.1-3.8c3.6-1.3,7.2-2.6,10.8-3.7
		c5.6-1.8,11.2-3.4,16.7-5.1c0.3-0.1,0.6-0.2,0.9-0.3C238.1,8,238.2,8,238.4,8z"/>
	<path class="st0" d="M60.8,163.5c0.7-0.9,1.4-1.8,2.1-2.6c1.5-1.6,2.9-3.2,4.5-4.7c2.5-2.4,5.1-4.6,7.8-6.7
		c3.4-2.7,7.1-5.1,10.8-7.3c1.4-0.8,2.8-1.6,4.2-2.3c4.3-2.3,8.8-4.4,13.4-6.1c3.7-1.4,7.4-2.6,11.1-3.7c3.2-1,6.5-1.9,9.8-2.7
		c2.1-0.5,4.2-0.8,6.3-1.1c2.2-0.4,4.5-0.6,6.8-0.5c0.7,0,1.5,0.1,2.2,0.1c0.2,0,0.4,0.2,0.5,0.3c-0.1,0.1-0.2,0.4-0.4,0.4
		c-1.7,0.7-3.4,1.3-5.2,1.9c-0.5,0.2-0.9,0.4-1.4,0.6c-0.3,0.2-0.3,0.5,0,0.7c0.4,0.2,0.7,0.4,1.1,0.5c0.5,0.2,1.1,0.3,1.8,0.5
		c-0.5,0.2-0.9,0.4-1.3,0.6c-1.1,0.6-1.6,1.7-1.3,2.8c0.1,0.4,0,0.6-0.4,0.8c-0.2,0.1-0.4,0.2-0.6,0.3c-0.8,0.5-0.8,0.7-0.4,1.5
		c0.3,0.6,0.5,1.3,0.6,1.9c0.1,1.2-0.4,1.7-1.6,1.9c-2.7,0.4-5.3,0.8-8,1.3c-4.4,0.9-8.8,1.9-13.1,2.9c-2.6,0.6-5.1,1.4-7.6,2.2
		c-3.2,1.1-6.4,2.3-9.6,3.5c-1.3,0.5-2.5,1.1-3.7,1.6c-3.8,1.8-7.4,3.7-10.9,6.1c-0.5,0.3-1,0.7-1.5,1.1c-1,0.9-2.2,1.2-3.5,1.2
		c-0.6,0-1.2-0.1-1.6-0.6c-0.4,0.4-0.9,0.8-1.3,1.1c-0.6,0.5-1.1,0.6-1.9,0.4c-2.6-0.8-4.8-0.1-6.7,1.8c-0.2,0.2-0.5,0.4-0.8,0.6
		C60.8,163.7,60.8,163.6,60.8,163.5z"/>
	<path class="st0" d="M104.5,147.4c-0.2,1-0.4,1.9-0.7,2.8c-0.5,1.8-0.9,3.7-1.4,5.5c-0.4,1.2-1,2.3-1.4,3.5
		c-0.6,1.7-1.1,3.4-1.7,5.2c-0.1,0.2-0.1,0.4-0.1,0.6c0.2,1.5-0.4,2.7-0.9,4c-0.7,2.2-1.4,4.4-2.1,6.6c-0.1,0.2,0,0.4-0.1,0.7
		c0.7,0,0.6,0.4,0.5,0.9c-0.6,2.3-1.3,4.6-1.9,7c-0.7,2.5-1.3,5-2,7.6c-1.3,4.9-2.5,9.9-3.8,14.8c-1,3.8-1.9,7.6-2.9,11.4
		c-0.8,3-2,6-3.7,8.6c-0.1,0.2-0.2,0.4-0.4,0.4c-0.2,0.1-0.5,0.1-0.7,0c-0.1,0-0.2-0.3-0.1-0.5c0-0.3,0.1-0.6,0.2-1
		c-0.1,0.1-0.2,0.2-0.3,0.3c-0.4,0.3-0.7,0.1-0.7-0.3c0-0.8,0-1.6,0-2.4c0.1-1,0.2-2,0.2-3.1c-0.2,0.6-0.4,1.1-0.7,1.9
		c-0.6-0.9-0.7-1.7-0.6-2.5c0.1-0.8,0.2-1.7,0.4-2.4c-0.5,0-0.9,0.1-1.4,0c-0.5-0.1-0.8,0.1-1,0.5c-0.5,1-0.9,2-1.4,3
		c-0.1,0.2-0.4,0.4-0.6,0.4c-0.2,0-0.5-0.2-0.6-0.4c-0.2-0.6-0.3-1.1-0.3-1.7c0.1-2.4,0.2-4.7,0.4-7.1c0.4-3.5,0.9-6.9,1.4-10.4
		c0.5-3.1,1-6.2,1.6-9.3c0.8-4.1,1.6-8.2,2.5-12.3c0.5-2.5,1.1-5,1.7-7.5c1.3-5.5,2.7-11,4-16.6c0.1-0.6,0.4-0.9,0.9-1.2
		c3.2-1.8,6.6-3,10.1-4.2c2.3-0.8,4.6-1.7,6.9-2.5C104.2,147.5,104.3,147.5,104.5,147.4z"/>
	<path class="st0" d="M90.2,138.7c0.2-0.7,0.3-1.3,0.5-2c1-3.6,2-7.2,3.1-10.8c1.3-4.3,2.6-8.5,4-12.8c1.1-3.5,2.3-7.1,3.4-10.6
		c0.7-2.1,1.3-4.1,2-6.2c0.2-0.5,0.5-0.9,0.8-1.3c3.4-3,7-5.6,10.7-8.2c2.6-1.8,5.2-3.8,7.8-5.7c0.9-0.7,1.8-1.5,2.8-2.2
		c-0.1,0.3-0.2,0.5-0.3,0.8c-1.3,3.6-2.8,7.1-4,10.7c-1.3,3.8-2.6,7.7-3.8,11.5c-1.4,4.2-2.7,8.5-4,12.8c-1.1,3.6-2.3,7.3-3.4,10.9
		c-0.5,1.6-1,3.3-1.5,4.9c-0.1,0.4-0.3,0.6-0.8,0.7c-3.4,0.9-6.6,2.1-9.7,3.6c-2.4,1.2-4.8,2.5-7.2,3.8c-0.1,0-0.2,0.1-0.2,0.1
		C90.3,138.7,90.3,138.7,90.2,138.7z"/>
	<path class="st0" d="M135.5,38.9c0.7,0.4,0.7,1.1,0.5,1.7c-0.5,1.6-1.1,3.3-1.6,4.9c-0.3,1.1-0.6,2.3-0.9,3.5
		c-0.1,0.3,0.1,0.7,0.3,1c0.6,0.7,0.5,1.5,0.4,2.3c0,0.5-0.3,0.9-0.8,1.2c-3.7,2.3-7.3,4.6-10.9,7c-3,2-6,4.1-8.9,6.2
		c-0.3,0.2-0.6,0.5-0.9,0.7c0,0-0.1-0.1-0.1-0.1c0.3-0.7,0.5-1.4,0.8-2c0.8-1.9,1.4-3.9,2.3-5.8c1.1-2.4,2.3-4.7,3.5-7.1
		c0.9-1.8,1.9-3.5,2.9-5.2c1.4-2.4,2.8-4.8,4.3-7.2c1.7-2.7,3.4-5.3,5.2-7.9c1.4-2.1,2.9-4,4.6-5.8c2.5-2.5,4.9-5,7.3-7.4
		c1.6-1.6,3.3-3.2,5-4.8c0.4-0.4,0.9-0.8,1.4-1.2c0.2,0.5,0.5,0.3,0.8,0.1c0.7-0.4,1.3-0.9,2-1.3c0.2-0.1,0.3-0.2,0.5-0.2
		c0.1,0,0.3-0.1,0.3,0c0.1,0.1,0.1,0.3,0,0.4c-0.4,0.6-0.7,1.3-1.2,1.7c-1.3,1.2-2.6,2.3-3.9,3.4c-0.5,0.4-1,0.9-1.5,1.3
		c-1.2,1.1-2.5,2.2-3.6,3.4c-1.5,1.6-2.8,3.4-3.2,5.7c-0.1,0.8-0.2,1.7-0.1,2.5c0.3,1.5-0.2,2.9-1,4.1c-1.1,1.7-2.3,3.3-3.5,4.9
		C135.6,38.8,135.6,38.8,135.5,38.9z"/>
</g>
</svg>
